<?xml version="1.0" encoding="UTF-8"?>
<svg id="Layer_1" data-name="Layer 1" xmlns="http://www.w3.org/2000/svg" viewBox="0 0 236.93 68.8">
  <defs>
    <style>
      .cls-1 {
        fill: #395144;
      }

      .cls-2 {
        fill: #4e6c50;
      }
    </style>
  </defs>
  <path class="cls-2" d="m76.17,35.95c-.03-.45-.32-.85-.74-1.02l-3.72-1.55,3.17-8.11c.16-.4.09-.86-.19-1.19-.27-.34-.7-.5-1.13-.43l-8.53,1.42-.91-3.35c-.11-.42-.44-.74-.86-.85-.42-.11-.86.02-1.16.34l-4.99,5.26,1.85-12.66c.06-.44-.12-.87-.47-1.14-.35-.26-.82-.31-1.22-.13l-4.21,1.94-5.05-8.73c-.21-.37-.61-.6-1.04-.6s-.82.23-1.04.6l-5.05,8.73-4.21-1.94c-.4-.18-.87-.14-1.22.13-.35.26-.53.7-.47,1.14l1.85,12.66-4.99-5.26c-.3-.31-.74-.44-1.16-.34-.42.11-.75.43-.86.85l-.91,3.35-8.53-1.42c-.43-.07-.86.09-1.13.43-.27.34-.34.79-.19,1.19l3.17,8.11-3.72,1.55c-.42.17-.7.57-.74,1.02-.03.45.19.88.58,1.12l12.26,7.3c2.13,1.27,3.04,3.87,2.17,6.19l-.95,2.53c-.18.47-.04,1.01.35,1.34.39.33.93.38,1.37.13l12.2-6.99v14.88c0,.66.54,1.2,1.2,1.2s1.2-.54,1.2-1.2v-14.88l12.2,6.99c.19.11.39.16.6.16.28,0,.56-.1.78-.29.39-.33.52-.86.35-1.34l-.95-2.53c-.87-2.32.04-4.92,2.17-6.19l12.26-7.3c.39-.23.62-.66.58-1.12Z"/>
  <g>
    <path class="cls-1" d="m91.42,22.61h3.82c3.52,0,5.64,2.24,5.64,5.48s-2.12,5.48-5.64,5.48h-3.82v-10.95Zm3.82,9.46c2.56,0,3.98-1.6,3.98-3.98s-1.42-3.98-3.98-3.98h-2.25v7.96h2.25Z"/>
    <path class="cls-1" d="m105.68,22.61h7.49v1.52h-5.92v3.06h5.52v1.52h-5.52v3.32h6.14v1.52h-7.71v-10.95Z"/>
    <path class="cls-1" d="m118.24,22.61h1.57v9.43h5.4v1.52h-6.97v-10.95Z"/>
    <path class="cls-1" d="m129.74,22.61h7.49v1.52h-5.92v3.06h5.52v1.52h-5.52v3.32h6.14v1.52h-7.71v-10.95Z"/>
    <path class="cls-1" d="m141.59,28.09c0-3.37,2.01-5.65,5.57-5.65,1.44,0,2.78.43,3.71,1.14l-.77,1.35c-.95-.67-1.98-.96-2.95-.96-2.53,0-3.92,1.7-3.92,4.13s1.39,4.13,3.92,4.13c1.15,0,2.31-.49,3.17-1.36l.96,1.27c-1.02,1.01-2.46,1.61-4.13,1.61-3.51,0-5.57-2.29-5.57-5.65Z"/>
    <path class="cls-1" d="m158.88,24.13h-3.45v-1.52h8.51v1.52h-3.46v9.43h-1.6v-9.43Z"/>
    <path class="cls-1" d="m168.01,27.55c0-3.18,1.73-5.12,4.69-5.12s4.69,1.94,4.69,5.12v6.01h-1.57v-3.08h-6.25v3.08h-1.57v-6.01Zm7.81,1.39v-1.39c0-2.25-1.14-3.6-3.12-3.6s-3.12,1.35-3.12,3.6v1.39h6.25Z"/>
    <path class="cls-1" d="m182.59,33.56v-10.95h5.23c1.85,0,3.18,1.2,3.18,2.95,0,.98-.34,1.67-1.21,2.26,1.02.46,1.72,1.41,1.72,2.67,0,1.97-1.41,3.08-3.36,3.08h-5.55Zm1.57-6.31h3.58c.93,0,1.61-.53,1.61-1.6s-.68-1.55-1.61-1.55h-3.58v3.15Zm0,4.81h3.98c1.01,0,1.73-.61,1.73-1.69s-.72-1.69-1.73-1.69h-3.98v3.37Z"/>
    <path class="cls-1" d="m196.38,22.61h1.57v9.43h5.4v1.52h-6.97v-10.95Z"/>
    <path class="cls-1" d="m207.88,22.61h7.49v1.52h-5.92v3.06h5.52v1.52h-5.52v3.32h6.14v1.52h-7.71v-10.95Z"/>
    <path class="cls-1" d="m91.42,51.32v-10.95h5.23c1.85,0,3.18,1.2,3.18,2.95,0,.98-.34,1.67-1.21,2.26,1.02.46,1.72,1.41,1.72,2.67,0,1.97-1.41,3.08-3.36,3.08h-5.55Zm1.57-6.31h3.58c.93,0,1.61-.53,1.61-1.6s-.68-1.55-1.61-1.55h-3.58v3.15Zm0,4.81h3.98c1.01,0,1.73-.61,1.73-1.69s-.72-1.69-1.73-1.69h-3.98v3.37Z"/>
    <path class="cls-1" d="m104.52,45.84c0-3.34,2.07-5.65,5.52-5.65s5.54,2.31,5.54,5.65-2.07,5.65-5.54,5.65-5.52-2.32-5.52-5.65Zm9.41,0c0-2.47-1.38-4.13-3.89-4.13s-3.88,1.66-3.88,4.13,1.38,4.13,3.88,4.13,3.89-1.66,3.89-4.13Z"/>
    <path class="cls-1" d="m120.38,40.37h1.11l6.62,4.54v-4.54h1.57v10.95h-1.57v-4.57l-6.16-4.23v8.81h-1.57v-10.95Z"/>
    <path class="cls-1" d="m134.5,50.3l.75-1.35c.93.81,2.16,1.02,3.27,1.02,1.66,0,2.5-.68,2.5-1.72s-1.41-1.45-2.63-1.78c-1.87-.49-3.79-1.07-3.79-3.26,0-1.85,1.44-3.04,3.92-3.04,1.1,0,2.44.22,3.58.9l-.72,1.35c-.87-.58-2-.72-2.86-.72-1.45,0-2.31.58-2.31,1.51,0,1.04,1.23,1.41,2.53,1.73,1.86.47,3.91,1.02,3.91,3.3,0,1.94-1.44,3.24-4.13,3.24-1.41,0-2.81-.3-4.03-1.2Z"/>
    <path class="cls-1" d="m147.45,45.31c0-3.18,1.73-5.12,4.69-5.12s4.69,1.94,4.69,5.12v6.01h-1.57v-3.08h-6.25v3.08h-1.57v-6.01Zm7.81,1.39v-1.39c0-2.25-1.14-3.6-3.12-3.6s-3.12,1.35-3.12,3.6v1.39h6.25Z"/>
    <path class="cls-1" d="m162.03,40.37h1.57v10.95h-1.57v-10.95Z"/>
  </g>
</svg>